{
    "asset" : {
        "generator" : "Khronos glTF Blender I/O v1.4.40",
        "version" : "2.0"
    },
    "scene" : 0,
    "scenes" : [
        {
            "name" : "Scene",
            "nodes" : [
                0,
                1,
                2
            ]
        }
    ],
    "nodes" : [
        {
            "name" : "Light",
            "rotation" : [
                0.16907575726509094,
                0.7558803558349609,
                -0.27217137813568115,
                0.570947527885437
            ],
            "translation" : [
                4.076245307922363,
                5.903861999511719,
                -1.0054539442062378
            ]
        },
        {
            "name" : "Camera",
            "rotation" : [
                0.483536034822464,
                0.33687159419059753,
                -0.20870360732078552,
                0.7804827094078064
            ],
            "translation" : [
                7.358891487121582,
                4.958309173583984,
                6.925790786743164
            ]
        },
        {
            "mesh" : 0,
            "name" : "10242_Patio_Umbrella_Closed_v1_Iterations3",
            "rotation" : [
                0.7071068286895752,
                0,
                0,
                0.7071067094802856
            ]
        }
    ],
    "materials" : [
        {
            "doubleSided" : true,
            "emissiveFactor" : [
                0.5879999995231628,
                0.5879999995231628,
                0.5879999995231628
            ],
            "name" : "Material__26",
            "pbrMetallicRoughness" : {
                "baseColorTexture" : {
                    "index" : 0,
                    "texCoord" : 0
                },
                "metallicFactor" : 0,
                "roughnessFactor" : 0.8945907354354858
            }
        }
    ],
    "meshes" : [
        {
            "name" : "10242_Patio_Umbrella_Closed_v1_Iterations3",
            "primitives" : [
                {
                    "attributes" : {
                        "POSITION" : 0,
                        "NORMAL" : 1,
                        "TANGENT" : 2,
                        "TEXCOORD_0" : 3
                    },
                    "indices" : 4,
                    "material" : 0
                }
            ]
        }
    ],
    "textures" : [
        {
            "sampler" : 0,
            "source" : 0
        }
    ],
    "images" : [
        {
            "bufferView" : 5,
            "mimeType" : "image/jpeg",
            "name" : "10242_Patio_Umbrella_Closed_v1_Diffuse"
        }
    ],
    "accessors" : [
        {
            "bufferView" : 0,
            "componentType" : 5126,
            "count" : 24189,
            "max" : [
                28.367599487304688,
                274.5155029296875,
                28.400999069213867
            ],
            "min" : [
                -28.40760040283203,
                0.017899999395012856,
                -28.39940071105957
            ],
            "type" : "VEC3"
        },
        {
            "bufferView" : 1,
            "componentType" : 5126,
            "count" : 24189,
            "type" : "VEC3"
        },
        {
            "bufferView" : 2,
            "componentType" : 5126,
            "count" : 24189,
            "type" : "VEC4"
        },
        {
            "bufferView" : 3,
            "componentType" : 5126,
            "count" : 24189,
            "type" : "VEC2"
        },
        {
            "bufferView" : 4,
            "componentType" : 5123,
            "count" : 137664,
            "type" : "SCALAR"
        }
    ],
    "bufferViews" : [
        {
            "buffer" : 0,
            "byteLength" : 290268,
            "byteOffset" : 0
        },
        {
            "buffer" : 0,
            "byteLength" : 290268,
            "byteOffset" : 290268
        },
        {
            "buffer" : 0,
            "byteLength" : 387024,
            "byteOffset" : 580536
        },
        {
            "buffer" : 0,
            "byteLength" : 193512,
            "byteOffset" : 967560
        },
        {
            "buffer" : 0,
            "byteLength" : 275328,
            "byteOffset" : 1161072
        },
        {
            "buffer" : 0,
            "byteLength" : 698766,
            "byteOffset" : 1436400
        }
    ],
    "samplers" : [
        {
            "magFilter" : 9729,
            "minFilter" : 9986
        }
    ],
    "buffers" : [
        {
            "byteLength" : 2135168,
            "uri" : "data:application/octet-stream;base64,"
        }
    ]
}
